<svg t="1710000000001" class="icon" viewBox="0 0 1024 1024" version="1.1" xmlns="http://www.w3.org/2000/svg" p-id="2345" width="200" height="200">
  <path d="M853.333333 128H170.666667c-23.466667 0-42.666667 19.2-42.666667 42.666667v682.666666c0 23.466667 19.2 42.666667 42.666667 42.666667h682.666666c23.466667 0 42.666667-19.2 42.666667-42.666667V170.666667c0-23.466667-19.2-42.666667-42.666667-42.666667z m-42.666666 640H213.333333V256h597.333334v512z" p-id="2346"></path>
  <path d="M426.666667 341.333333v341.333334l256-170.666667z" p-id="2347"></path>
  <path d="M341.333333 512m-42.666666 0a42.666667 42.666667 0 1 0 85.333333 0 42.666667 42.666667 0 1 0-85.333333 0Z" p-id="2348"></path>
  <path d="M725.333333 512m-42.666666 0a42.666667 42.666667 0 1 0 85.333333 0 42.666667 42.666667 0 1 0-85.333333 0Z" p-id="2349"></path>
</svg>
