<svg t="1710000000000" class="icon" viewBox="0 0 1024 1024" version="1.1" xmlns="http://www.w3.org/2000/svg" p-id="1234" width="200" height="200">
  <path d="M853.333333 128H170.666667c-23.466667 0-42.666667 19.2-42.666667 42.666667v682.666666c0 23.466667 19.2 42.666667 42.666667 42.666667h682.666666c23.466667 0 42.666667-19.2 42.666667-42.666667V170.666667c0-23.466667-19.2-42.666667-42.666667-42.666667z m-42.666666 640H213.333333V256h597.333334v512z" p-id="1235"></path>
  <path d="M362.666667 469.333333c35.413333 0 64-28.586667 64-64s-28.586667-64-64-64-64 28.586667-64 64 28.586667 64 64 64zM256 725.333333h512l-128-170.666666-128 106.666666-85.333333-64z" p-id="1236"></path>
</svg>
