<?xml version="1.0" standalone="no"?><!DOCTYPE svg PUBLIC "-//W3C//DTD SVG 1.1//EN" "http://www.w3.org/Graphics/SVG/1.1/DTD/svg11.dtd"><svg t="1746871436811" class="icon" viewBox="0 0 1024 1024" version="1.1" xmlns="http://www.w3.org/2000/svg" p-id="7635" xmlns:xlink="http://www.w3.org/1999/xlink" width="256" height="256"><path d="M786 414l-16 0 0-192c0-105.87-86.13-192-192-192l-128 0c-105.87 0-192 86.13-192 192l0 192-16 0c-26.4 0-48 21.6-48 48l0 480c0 26.4 21.6 48 48 48l544 0c26.4 0 48-21.6 48-48L834 462C834 435.6 812.4 414 786 414zM578 862l-128 0 27.84-139.2C461.032 711.268 450 691.926 450 670c0-35.346 28.654-64 64-64s64 28.654 64 64c0 21.926-11.032 41.268-27.84 52.8L578 862zM642 414 386 414l0-192c0-35.29 28.71-64 64-64l128 0c35.29 0 64 28.71 64 64L642 414z" p-id="7636" fill="#cea519"></path></svg>