<?xml version="1.0" standalone="no"?><!DOCTYPE svg PUBLIC "-//W3C//DTD SVG 1.1//EN" "http://www.w3.org/Graphics/SVG/1.1/DTD/svg11.dtd"><svg t="1745769941895" class="icon" viewBox="0 0 1024 1024" version="1.1" xmlns="http://www.w3.org/2000/svg" p-id="7035" xmlns:xlink="http://www.w3.org/1999/xlink" width="256" height="256"><path d="M853.333333 85.333333H384a85.333333 85.333333 0 0 0-85.333333 85.333334v554.666666a42.666667 42.666667 0 0 0 85.333333 0V170.666667h469.333333v341.333333a42.666667 42.666667 0 0 0 85.333334 0V170.666667a85.333333 85.333333 0 0 0-85.333334-85.333334z" fill="#333333" p-id="7036"></path><path d="M896 661.333333a42.666667 42.666667 0 0 0-42.666667 42.666667v149.333333H170.666667V256a42.666667 42.666667 0 0 0-85.333334 0v597.333333a85.333333 85.333333 0 0 0 85.333334 85.333334h682.666666a85.333333 85.333333 0 0 0 85.333334-85.333334v-149.333333a42.666667 42.666667 0 0 0-42.666667-42.666667zM469.333333 384h298.666667a42.666667 42.666667 0 0 0 0-85.333333H469.333333a42.666667 42.666667 0 0 0 0 85.333333z" fill="#333333" p-id="7037"></path><path d="M469.333333 640h256a42.666667 42.666667 0 0 0 0-85.333333H469.333333a42.666667 42.666667 0 0 0 0 85.333333z" fill="#333333" p-id="7038"></path></svg>