<?xml version="1.0" standalone="no"?><!DOCTYPE svg PUBLIC "-//W3C//DTD SVG 1.1//EN" "http://www.w3.org/Graphics/SVG/1.1/DTD/svg11.dtd"><svg t="1746871212475" class="icon" viewBox="0 0 1024 1024" version="1.1" xmlns="http://www.w3.org/2000/svg" p-id="6598" xmlns:xlink="http://www.w3.org/1999/xlink" width="256" height="256"><path d="M768 64l-128 0c-105.87 0-192 86.13-192 192l0 192L48 448c-26.4 0-48 21.6-48 48l0 480c0 26.4 21.6 48 48 48l544 0c26.4 0 48-21.6 48-48L640 496c0-26.4-21.6-48-48-48l-16 0 0-192c0-35.29 28.71-64 64-64l128 0c35.29 0 64 28.71 64 64l0 192 128 0 0-192C960 150.13 873.87 64 768 64zM384 896l-128 0 27.84-139.2C267.032 745.268 256 725.926 256 704c0-35.346 28.654-64 64-64 35.346 0 64 28.654 64 64 0 21.926-11.032 41.268-27.84 52.8L384 896z" fill="#cea51a" p-id="6599"></path></svg>